<?xml version="1.0" encoding="utf-8"?><!DOCTYPE svg  PUBLIC '-//W3C//DTD SVG 1.1//EN'  'http://www.w3.org/Graphics/SVG/1.1/DTD/svg11.dtd'><svg enable_background="new 0 0 1000 728" height="728px" pretty_print="False" style="stroke-linejoin: round; stroke:#000; fill: none;" version="1.1" viewBox="0 0 1000 728" width="1000px" xmlns="http://www.w3.org/2000/svg" xmlns:xlink="http://www.w3.org/1999/xlink"><defs><style type="text/css"><![CDATA[path { fill-rule: evenodd; }]]></style></defs><metadata><views><view h="728.697319975" padding="0" w="1000"><proj id="laea" lat0="53.0212027076" lon0="10.634765625"/><bbox h="481.68" w="661.92" x="669.04" y="742.96"/></view></views></metadata><g class="" fill="#D1BEB0" fill-opacity="0.23" id="land" stroke="#D1BEB0" stroke-opacity="0.3"><path d="M859.646963,652.192585L847.914134,661.779662L837.326847,664.808517L836.333486,669.766981L835.320050,670.179143L828.496316,672.924036L833.769407,679.091647L841.611604,679.229253L854.768998,667.257023L853.918992,665.969954L851.941574,662.970833L859.646963,652.192585Z "/><path d="M698.731331,691.839932L697.103318,700.069400L716.124996,700.302171L716.460723,703.331634L737.983096,697.481029L738.899081,691.735823L731.087417,695.601636L730.897855,692.367580L719.482865,693.286371L707.919262,696.514668L698.731331,691.839932Z "/><path d="M571.999065,660.068892L560.904354,662.347572L545.933507,665.079095L528.596540,663.970126L526.731595,673.495640L547.844208,682.182520L555.546040,683.823460L567.374206,690.139168L570.018980,680.480581L567.476748,674.909306L571.999065,660.068892Z "/><path d="M479.938083,607.122515L472.763067,612.703754L465.011221,611.548750L467.946431,622.229991L467.921694,644.553507L473.317537,649.601880L479.376050,643.561066L485.966290,644.832111L488.252730,620.394088L479.938083,607.122515Z "/><path d="M485.098277,589.743719L482.988574,573.809078L474.021673,580.703259L471.067160,587.516391L473.982804,600.068797L480.270517,603.979206L485.098277,589.743719Z "/><path d="M303.644984,377.983347L315.810796,363.767700L317.142739,350.356557L325.768089,339.209087L317.378635,325.287759L308.584313,323.823866L298.530740,330.167662L280.373713,340.236823L280.651881,360.135693L266.454900,376.353883L281.299679,383.546330L303.644984,377.983347Z "/><path d="M521.616055,339.279166L518.028497,330.038034L502.819031,336.422488L504.326631,344.142122L515.619104,354.510459L521.616055,339.279166Z "/><path d="M368.612998,270.521565L356.843605,269.699996L349.624092,266.590640L338.705685,279.600237L330.559063,297.505018L333.337211,307.966249L329.784067,325.630245L337.286615,318.288667L339.516966,324.058601L333.936938,331.366426L335.307922,336.853407L347.359621,342.775857L352.345895,355.754957L348.696089,366.085953L332.922650,361.112591L328.264326,372.618323L332.209775,383.755964L319.361289,386.875636L320.931501,394.843446L338.050010,401.630234L327.076262,403.499187L306.082156,418.933670L311.450973,423.982725L321.103546,418.799568L331.433970,423.103369L340.750801,416.018689L345.492193,420.645588L366.123266,418.991533L381.656166,421.501093L393.366108,413.227841L390.026570,403.064308L396.517847,398.399847L399.370482,386.745277L386.351722,381.414461L384.260749,373.668381L380.795727,351.650680L373.991561,347.515846L368.029698,322.144952L357.683929,318.975133L369.941524,304.287753L375.309015,289.819707L364.630940,287.702758L354.176270,288.172270L368.612998,270.521565Z "/><path d="M316.627034,104.097528L305.782582,98.288151L290.447852,102.530889L284.231121,93.838222L269.290616,97.960885L265.048711,81.420800L253.830226,78.470564L243.118638,86.519394L254.924652,98.047964L252.522695,103.035933L238.629843,99.603495L249.139185,115.789946L238.138390,119.392765L255.515829,134.967499L264.061165,142.058027L271.972429,141.869561L298.696613,139.117004L313.658484,129.560530L310.346909,114.638008L316.627034,104.097528Z "/><path d="M500.800916,726.697320L502.680018,725.005097L504.661082,709.075160L499.368324,704.511075L499.475012,695.991047L506.997615,686.939371L505.911082,683.405190L493.154974,690.183947L493.643949,680.857862L483.196997,678.537585L466.737998,685.619606L456.427964,686.393025L450.483798,681.852318L434.480077,681.184133L419.940844,687.536861L412.543716,684.244498L387.634164,683.555798L361.925569,684.023778L346.852755,687.751036L336.432351,693.985208L319.703245,694.711288L303.740033,702.296612L297.184471,700.963677L282.178852,694.075311L267.654589,692.512449L260.019382,682.926002L249.066400,680.452923L242.205953,690.521982L228.413094,706.915192L215.612988,711.666035L198.565236,716.034130L186.025439,725.576874L185.497893,726.697320L500.800916,726.697320Z M787.231275,0.000000L783.479389,3.437103L783.915750,11.436433L776.021903,15.072253L773.912669,2.097479L769.403902,4.430597L760.346833,31.120473L753.390900,46.473293L758.607102,57.442177L751.273965,66.702887L742.964332,64.076044L737.437670,55.150822L743.822662,48.675687L734.756103,41.785502L715.126677,45.930948L725.410965,53.626030L728.058088,64.999330L738.952856,71.839188L741.690654,85.102563L732.344044,82.619993L725.779396,84.777217L718.398948,108.758777L729.204031,118.904550L725.169585,125.814745L702.875172,122.748883L700.785691,130.936400L708.672994,136.749282L711.303033,145.492545L703.523301,143.368199L691.713221,141.776573L680.547247,116.288343L664.173344,107.628746L668.425852,103.619665L704.791211,104.514975L713.765703,94.989824L716.672541,82.680868L710.471889,71.801099L701.534237,66.203650L668.961455,57.407783L650.347035,59.765055L636.288002,52.720856L632.093943,60.859114L621.654875,51.852744L627.814726,44.770833L605.192545,37.261627L595.605738,43.478910L584.540704,45.117346L578.496596,61.898736L568.012709,62.711720L555.341390,72.685981L539.784916,97.601252L529.239545,112.301252L513.195205,148.711016L499.137117,174.677414L482.612688,193.544040L459.454544,208.000352L450.542048,219.313323L449.880423,262.283836L451.771037,282.476546L464.680586,292.750778L477.949191,288.936906L497.365694,267.777185L503.784677,279.184424L511.564263,305.405037L520.563358,326.327276L524.426780,343.814020L536.628610,342.461213L541.750895,327.406015L554.425866,328.378902L558.842172,310.539089L559.870120,279.090660L569.420657,273.801410L575.658339,251.999733L565.715384,242.714308L557.963614,230.316138L561.587792,203.672689L575.743222,185.912873L586.341006,169.295212L583.235515,158.275915L588.460717,144.313827L600.371480,136.796913L612.711094,143.204185L615.292064,150.686414L611.013331,155.574791L596.886318,178.772261L591.469017,191.498622L589.223106,202.800733L596.107917,218.710548L597.102344,237.106340L606.872602,241.720924L613.960546,250.805932L628.094281,244.136855L642.470618,234.060510L658.261347,228.709569L669.934307,234.809552L662.369293,247.471024L653.052910,250.331478L642.378018,249.622087L631.344600,254.729551L620.585182,262.093938L623.405780,272.467123L630.739881,277.821302L633.797140,274.826473L634.873566,285.832408L635.794366,300.248359L627.885739,302.101286L617.575307,289.769645L609.354997,297.564975L606.255786,309.880580L608.004712,323.806609L612.561657,338.972507L598.848496,347.010283L597.475765,355.456828L587.087650,356.470942L585.764653,352.045558L574.777817,350.038503L561.849405,357.523305L545.533212,367.291850L538.344895,373.153051L532.902205,367.465034L520.380847,360.535203L514.394413,365.773217L503.334600,369.394722L503.420749,362.785186L492.502001,358.418844L492.382501,351.223430L489.605681,342.123773L497.257090,328.788257L500.344460,330.815376L502.856415,323.789600L497.286893,320.971984L496.085714,315.756409L499.105305,309.704009L499.455897,300.137230L491.387361,305.335752L487.776530,310.414302L478.846123,311.360126L475.753906,316.847900L473.871159,321.810940L473.494405,340.840988L477.462404,351.304207L477.642934,361.874320L479.939913,368.918341L472.192173,377.866304L470.296766,373.690590L461.054631,374.301363L458.699288,378.127462L449.543245,377.070661L433.795539,383.732451L421.467688,410.155553L415.030908,414.662560L405.359625,417.320961L394.766109,419.843640L389.348598,434.546121L359.611840,444.900787L349.682281,435.111911L349.978379,456.582878L330.570851,448.162747L314.234115,448.969479L312.727441,462.552519L330.104044,473.350075L337.620494,484.314219L347.511325,505.830717L339.385660,542.054154L330.786980,551.914152L309.362114,547.371914L298.162528,546.121929L284.712643,539.996679L267.032663,536.029421L251.801776,528.753494L230.082357,536.825641L233.475033,546.142193L229.594686,558.821175L228.675235,565.070241L229.784851,572.288346L228.226624,580.021803L222.731421,590.110356L219.978475,597.138787L212.839946,602.169128L208.820602,613.655713L210.525917,621.411567L216.469994,624.786510L215.210088,636.233357L209.725036,649.760115L217.658979,649.739496L224.751188,654.229842L231.614957,650.988584L244.620131,657.040883L246.683085,668.419313L250.957227,675.772107L257.936244,678.865897L264.874714,673.212044L275.290166,668.697733L289.320361,671.791351L308.183745,674.893886L320.711356,662.581721L332.314860,660.673804L337.070156,649.236970L346.528668,642.274109L342.265543,630.976838L349.708360,616.824618L359.661411,607.832109L361.664566,601.809073L380.024465,600.136302L394.434575,589.285131L394.719308,578.481671L397.341553,567.517187L417.589801,563.337618L444.036006,570.195769L456.799550,560.328865L462.455784,559.195016L470.486777,550.847325L476.697794,548.507229L487.483461,554.829150L494.151717,557.047914L498.321071,575.405808L507.698865,586.058807L520.559595,597.949905L531.704074,606.036616L542.154291,606.870346L548.555085,614.042528L557.820421,616.948109L562.434895,624.688752L568.501287,626.631964L573.442269,635.653250L579.777176,645.951342L576.865911,650.116628L574.485143,660.208884L574.763969,665.850387L580.834726,664.000954L587.581837,647.593640L593.580872,645.998879L594.547912,636.231002L583.636843,630.249343L588.771129,617.824489L601.366043,619.757777L610.058269,627.580132L612.101414,620.706034L610.301798,617.416292L597.315036,608.989962L586.541644,604.306185L573.528357,598.588024L577.195023,594.620097L573.535792,590.779208L562.668466,591.611646L546.580116,577.502052L539.125571,562.469321L526.213708,553.537188L521.621999,544.194869L523.130589,538.866651L522.199511,529.664959L532.637643,522.771694L543.108673,525.064687L540.272514,526.877086L539.819397,527.196766L539.777561,533.651729L543.924275,539.700922L547.605253,531.497859L556.202035,533.972028L556.791382,540.219455L563.298059,547.647870L560.688247,549.199916L572.841927,562.076694L585.629943,566.599867L594.068049,572.554570L607.552167,578.113182L613.849020,581.135244L618.341857,586.719050L621.388459,587.808634L624.034978,590.436346L622.767719,596.387437L622.935953,609.097305L625.104710,617.726777L633.664487,622.949483L634.409662,626.959861L636.988704,627.939395L638.564567,633.051916L647.200292,642.551540L653.907791,650.208344L658.006544,662.043087L665.431346,675.892100L678.722809,681.983007L688.604249,680.145046L680.640899,664.944787L689.701627,661.467271L683.982181,652.877189L698.237406,655.371692L696.367533,645.094378L688.368531,641.062492L679.061341,633.995070L683.858175,629.069997L675.420027,621.679866L670.638786,611.251127L672.683215,606.794296L681.574444,614.974437L689.438945,613.574005L696.100684,609.281922L684.692031,600.770577L700.727424,592.881934L708.267452,593.176241L716.797614,591.954605L717.327451,595.757168L723.340732,603.309405L732.976758,590.952476L737.677539,583.981889L753.710840,579.056678L755.174894,573.992838L742.008996,571.061521L738.872201,564.463364L732.284904,555.126680L734.278348,540.970822L739.381880,531.780730L737.869351,508.986267L742.155245,509.687786L747.373565,504.170920L745.917970,499.584337L752.208044,483.580403L754.156182,472.352725L764.877581,466.830981L767.608650,473.283521L787.994310,471.887525L792.789199,474.828849L782.749190,484.557678L781.549048,488.680443L796.724695,489.596712L796.488343,498.898622L804.591057,500.251156L818.300071,484.154906L830.765219,476.212277L830.977423,469.012273L818.879003,474.627117L811.479501,472.458076L807.155516,461.645992L815.300813,451.339793L826.124624,446.264272L831.924618,437.538448L840.752420,432.419042L850.093799,425.306225L851.898969,429.000038L837.344167,443.173297L846.553034,447.488005L841.994449,466.132132L834.134068,472.332965L848.372227,478.654252L864.812887,479.705519L886.154170,487.931273L892.776324,491.322415L900.438404,490.318611L910.184978,493.515602L918.103520,503.930417L919.215532,512.196059L907.704553,527.924835L896.013624,531.065011L881.860996,539.920709L860.764487,540.322706L833.900791,536.045516L812.334514,543.674238L798.355831,553.560121L785.345508,569.964468L758.928385,574.566854L756.336435,589.786645L735.200460,595.596651L723.112343,616.405948L733.770943,623.164917L729.536658,638.812202L742.028014,646.599146L754.248401,662.688457L770.162415,658.566924L786.433983,664.615649L796.059256,659.806306L797.656653,651.429641L813.410526,647.657917L827.587097,653.837813L848.974216,645.003749L855.897622,631.522243L868.990199,631.570434L877.175883,627.024556L873.823127,635.583283L881.507948,641.780021L880.187842,650.313590L885.585124,663.407767L885.494238,664.120510L881.850494,679.142564L880.667679,695.395502L880.305879,695.714698L879.415961,700.926064L880.035949,715.342548L878.243228,724.960152L879.558959,725.627251L879.131866,726.697320L1000.000000,726.697320L1000.000000,461.162505L980.663965,450.711987L976.138185,438.742123L957.648880,428.641662L960.133079,404.982310L969.455650,395.964607L969.124604,383.140706L977.267488,373.515453L985.406867,358.513828L996.665572,356.630058L1000.000000,354.000421L1000.000000,0.000000L787.231275,0.000000Z M1000.000000,403.983687L998.647077,404.594499L1000.000000,406.671863L1000.000000,403.983687Z "/><path d="M295.225103,0.000000L295.305953,2.528489L295.534467,11.024531L306.988478,13.190848L312.255798,0.000000L295.225103,0.000000Z M50.411655,0.000000L40.378463,14.427675L37.381250,27.843858L48.381746,41.477514L45.415604,62.022815L54.814952,70.567347L71.296881,60.706151L85.277482,52.348053L93.689947,39.403114L113.897746,38.197023L125.625586,32.108576L135.182759,22.643442L148.162197,18.774342L159.061215,22.949738L169.567934,26.141096L173.931046,28.923655L194.692772,28.883940L215.185962,19.482529L225.403511,18.070301L231.492247,22.459858L251.658662,28.407187L275.195452,25.580471L298.675670,20.106266L291.663912,15.029181L278.007000,5.913001L289.583822,1.408865L290.222206,0.000000L50.411655,0.000000Z "/></g></svg>